# xmcd
#
# Track frame offsets: 
#        225
#        9585
#        17555
#        30653
#        41942
#        52365
#        62734
#        72632
#        83055
#        95025
#        103987
#        112360
#        132027
#        140770
#        149677
#        157906
#        166323
#        178941
#        188205
#        197257
#        208348
#        217983
#
# Disc length: 3017 seconds
#
# Revision: 2
# Processed by: cddbd v1.5.2PL0 Copyright (c) Steve Scherf et al.
# Submitted via: ExactAudioCopy v0.99pb5
#
DISCID=5b0bc616
DTITLE=Linard Bardill - Was i nid weiss, weiss mini Geiss
DYEAR=2000
DGENRE=Folk
TTITLE0=Der Luki
TTITLE1=Mine Huet
TTITLE2=Mini Geiss
TTITLE3=Mine Garte
TTITLE4=Tuusigperleketti
TTITLE5=Es Lama in der Pampa
TTITLE6=Dä Spatz isch fräch
TTITLE7=Frooge
TTITLE8=Es Poppi im Buuch
TTITLE9=En Bär im Keller
TTITLE10=Über d'Steine
TTITLE11=D'Ackerschüchi Barbara
TTITLE12=En Tiger uf de Stroos
TTITLE13=Der Otto Krebs
TTITLE14=Hummeli
TTITLE15=Der Esel vom Martin
TTITLE16=Zwei Papa
TTITLE17=Öppe wett i bi eu sii
TTITLE18=Im Munggeloch
TTITLE19=Ariana
TTITLE20=Bis i schloofe kann
TTITLE21=Uf em Hügel
EXTD=
EXTT0=
EXTT1=
EXTT2=
EXTT3=
EXTT4=
EXTT5=
EXTT6=
EXTT7=
EXTT8=
EXTT9=
EXTT10=
EXTT11=
EXTT12=
EXTT13=
EXTT14=
EXTT15=
EXTT16=
EXTT17=
EXTT18=
EXTT19=
EXTT20=
EXTT21=
PLAYORDER=
